HIERARCHY
ROOT hip
{
  OFFSET 0 0 0
  CHANNELS 6 Xposition Yposition Zposition Zrotation Yrotation Xrotation
  JOINT abdomen
  {
    OFFSET 0 20.6881 -0.73152
    CHANNELS 3 Zrotation Xrotation Yrotation
    JOINT chest
    {
      OFFSET 0 11.7043 -0.48768
      CHANNELS 3 Zrotation Xrotation Yrotation
      JOINT neck
      {
        OFFSET 0 22.1894 -2.19456
        CHANNELS 3 Zrotation Xrotation Yrotation
        JOINT head
        {
          OFFSET -0.24384 7.07133 1.2192
          CHANNELS 3 Zrotation Xrotation Yrotation
          JOINT leftEye
          {
            OFFSET 4.14528 8.04674 8.04672
            CHANNELS 3 Zrotation Xrotation Yrotation
            End Site
            {
              OFFSET 1 0 0
            }
          }
          JOINT rightEye
          {
            OFFSET -3.6576 8.04674 8.04672
            CHANNELS 3 Zrotation Xrotation Yrotation
            End Site
            {
              OFFSET 1 0 0
            }
          }
        }
      }
      JOINT rCollar
      {
        OFFSET -2.68224 19.2634 -4.8768
        CHANNELS 3 Zrotation Xrotation Yrotation
        JOINT rShldr
        {
          OFFSET -8.77824 -1.95073 1.46304
          CHANNELS 3 Zrotation Xrotation Yrotation
          JOINT rForeArm
          {
            OFFSET -28.1742 -1.7115 0.48768
            CHANNELS 3 Zrotation Xrotation Yrotation
            JOINT rHand
            {
              OFFSET -22.5879 0.773209 7.07136
              CHANNELS 3 Zrotation Xrotation Yrotation
              JOINT rThumb1
              {
                OFFSET -1.2192 -0.487915 3.41376
                CHANNELS 3 Zrotation Xrotation Yrotation
                JOINT rThumb2
                {
                  OFFSET -3.37035 -0.52449 3.41376
                  CHANNELS 3 Zrotation Xrotation Yrotation
                  End Site
                  {
                    OFFSET -1.78271 -1.18214 1.43049
                  }
                }
              }
              JOINT rIndex1
              {
                OFFSET -7.75947 0.938293 5.60832
                CHANNELS 3 Zrotation Xrotation Yrotation
                JOINT rIndex2
                {
                  OFFSET -2.54057 -0.884171 1.56538
                  CHANNELS 3 Zrotation Xrotation Yrotation
                  End Site
                  {
                    OFFSET -1.62519 -0.234802 1.16502
                  }
                }
              }
              JOINT rMid1
              {
                OFFSET -8.24714 1.18213 3.41376
                CHANNELS 3 Zrotation Xrotation Yrotation
                JOINT rMid2
                {
                  OFFSET -3.10165 -0.590103 1.0647
                  CHANNELS 3 Zrotation Xrotation Yrotation
                  End Site
                  {
                    OFFSET -2.48547 -0.328903 0.83742
                  }
                }
              }
              JOINT rRing1
              {
                OFFSET -8.82822 0.546677 1.51678
                CHANNELS 3 Zrotation Xrotation Yrotation
                JOINT rRing2
                {
                  OFFSET -2.60934 -0.819778 -0.0198488
                  CHANNELS 3 Zrotation Xrotation Yrotation
                  End Site
                  {
                    OFFSET -2.33842 -0.294052 0.168128
                  }
                }
              }
              JOINT rPinky1
              {
                OFFSET -8.27202 -0.0477905 -0.4584
                CHANNELS 3 Zrotation Xrotation Yrotation
                JOINT rPinky2
                {
                  OFFSET -1.82734 -0.647385 -0.700984
                  CHANNELS 3 Zrotation Xrotation Yrotation
                  End Site
                  {
                    OFFSET -1.69225 -0.51767 -0.607171
                  }
                }
              }
            }
          }
        }
      }
      JOINT lCollar
      {
        OFFSET 2.68224 19.2634 -4.8768
        CHANNELS 3 Zrotation Xrotation Yrotation
        JOINT lShldr
        {
          OFFSET 8.77824 -1.95073 1.46304
          CHANNELS 3 Zrotation Xrotation Yrotation
          JOINT lForeArm
          {
            OFFSET 28.1742 -1.7115 0.48768
            CHANNELS 3 Zrotation Xrotation Yrotation
            JOINT lHand
            {
              OFFSET 22.5879 0.773209 7.07136
              CHANNELS 3 Zrotation Xrotation Yrotation
              JOINT lThumb1
              {
                OFFSET 1.2192 -0.487915 3.41376
                CHANNELS 3 Zrotation Xrotation Yrotation
                JOINT lThumb2
                {
                  OFFSET 3.37035 -0.52449 3.41376
                  CHANNELS 3 Zrotation Xrotation Yrotation
                  End Site
                  {
                    OFFSET 1.78271 -1.18214 1.43049
                  }
                }
              }
              JOINT lIndex1
              {
                OFFSET 7.75947 0.938293 5.60832
                CHANNELS 3 Zrotation Xrotation Yrotation
                JOINT lIndex2
                {
                  OFFSET 2.54057 -0.884171 1.56538
                  CHANNELS 3 Zrotation Xrotation Yrotation
                  End Site
                  {
                    OFFSET 1.62519 -0.234802 1.16502
                  }
                }
              }
              JOINT lMid1
              {
                OFFSET 8.24714 1.18213 3.41376
                CHANNELS 3 Zrotation Xrotation Yrotation
                JOINT lMid2
                {
                  OFFSET 3.10165 -0.590103 1.0647
                  CHANNELS 3 Zrotation Xrotation Yrotation
                  End Site
                  {
                    OFFSET 2.48547 -0.328903 0.83742
                  }
                }
              }
              JOINT lRing1
              {
                OFFSET 8.82822 0.546677 1.51678
                CHANNELS 3 Zrotation Xrotation Yrotation
                JOINT lRing2
                {
                  OFFSET 2.60934 -0.819778 -0.0198488
                  CHANNELS 3 Zrotation Xrotation Yrotation
                  End Site
                  {
                    OFFSET 2.33842 -0.294052 0.168128
                  }
                }
              }
              JOINT lPinky1
              {
                OFFSET 8.27202 -0.0477905 -0.4584
                CHANNELS 3 Zrotation Xrotation Yrotation
                JOINT lPinky2
                {
                  OFFSET 1.82734 -0.647385 -0.700984
                  CHANNELS 3 Zrotation Xrotation Yrotation
                  End Site
                  {
                    OFFSET 1.69225 -0.51767 -0.607171
                  }
                }
              }
            }
          }
        }
      }
    }
  }
  JOINT rButtock
  {
    OFFSET -8.77824 4.35084 1.2192
    CHANNELS 3 Zrotation Xrotation Yrotation
    JOINT rThigh
    {
      OFFSET 0 -1.70687 -2.19456
      CHANNELS 3 Zrotation Xrotation Yrotation
      JOINT rShin
      {
        OFFSET 0 -36.8199 0.73152
        CHANNELS 3 Zrotation Xrotation Yrotation
        JOINT rFoot
        {
          OFFSET 0.73152 -45.1104 -5.12064
          CHANNELS 3 Zrotation Xrotation Yrotation
          End Site
          {
            OFFSET -1.1221 -3.69964 12.103
          }
        }
      }
    }
  }
  JOINT lButtock
  {
    OFFSET 8.77824 4.35084 1.2192
    CHANNELS 3 Zrotation Xrotation Yrotation
    JOINT lThigh
    {
      OFFSET 0 -1.70687 -2.19456
      CHANNELS 3 Zrotation Xrotation Yrotation
      JOINT lShin
      {
        OFFSET 0 -36.8199 0.73152
        CHANNELS 3 Zrotation Xrotation Yrotation
        JOINT lFoot
        {
          OFFSET -0.73152 -45.1104 -5.12064
          CHANNELS 3 Zrotation Xrotation Yrotation
          End Site
          {
            OFFSET 1.1221 -3.69964 12.103
          }
        }
      }
    }
  }
}
MOTION
Frames:	4
Frame Time:	0.00833333
-22.9186 85.3549 34.0759 -1.35 4.4151 2.36 1.44575 2.19796 6.03954 0.9343 1.60712 1.58369 -11.1544 -1.38 -5.71966 11.0076 -0.311446 -7.87393 -0.0 0.0 0.0 -0.0 0.0 0.0 -1.62738e-14 1.08932e-13 1.87702e-13 77.6232 -2.73442 0.603403 -9.25075 -3.69837 16.4039 -0.293784 15.2445 2.19504 -9.73701e-10 2.64882e-09 -1.124e-09 -1.69473e-09 4.58745e-09 -1.92766e-09 -9.73698e-10 2.64882e-09 -1.12401e-09 7.73091 5.47488 0.417314 -9.73703e-10 2.64882e-09 -1.124e-09 2.90554 0.965183 0.102902 -9.73693e-10 2.64882e-09 -1.12401e-09 10.2786 0.731801 0.0259123 -9.73706e-10 2.64882e-09 -1.124e-09 2.22167 -0.733487 -0.20892 -1.6328e-14 1.08936e-13 1.87553e-13 -74.6791 -23.7954 10.2679 7.7401 -2.87703 -13.6264 1.52291 32.7308 -5.18273 -1.07593e-09 1.52197e-10 2.17551e-09 -1.79727e-09 2.55841e-10 3.78202e-09 -1.07594e-09 1.52197e-10 2.17553e-09 -7.73091 5.47488 -0.417314 -1.07592e-09 1.52196e-10 2.17551e-09 -2.90554 0.965183 -0.102902 -1.07592e-09 1.52197e-10 2.17552e-09 -10.2786 0.731801 -0.0259123 -1.07592e-09 1.522e-10 2.17551e-09 -2.22167 -0.733487 0.20892 -2.03217e-16 0.0 -3.88251e-19 1.92835 -4.46353 1.48829 -0.393765 41.1177 0.588047 -2.81049 -6.92987 -10.0464 2.03217e-16 0.0 3.88251e-19 4.9464 -30.0203 3.13106 0.121687 25.4436 0.133512 -0.107419 -0.274464 -7.19094
-22.322 85.3758 34.8797 -0.1641 4.393 2.4489 0.420022 2.37288 5.68172 1.18261 1.57341 1.46684 -11.0507 -1.45113 -5.65124 11.043 -0.406323 -7.75278 -0.0 0.0 0.0 -0.0 0.0 0.0 -5.92296e-15 8.54638e-14 1.26056e-13 76.938 -3.43669 -0.0288541 -9.21119 -3.67437 16.3323 -0.338108 16.1796 2.33833 -7.49199e-10 2.02149e-09 -1.14094e-09 -1.3076e-09 3.50241e-09 -1.96031e-09 -7.49196e-10 2.02149e-09 -1.14095e-09 7.73091 5.47488 0.417314 -7.49202e-10 2.02149e-09 -1.14094e-09 2.90554 0.965183 0.102902 -7.49192e-10 2.02149e-09 -1.14095e-09 10.2786 0.731801 0.0259123 -7.49204e-10 2.02149e-09 -1.14093e-09 2.22167 -0.733487 -0.20892 -5.97346e-15 8.54659e-14 1.2588e-13 -74.3682 -24.0575 11.5422 7.79658 -2.90616 -13.7292 1.51526 32.6193 -5.16264 -9.73795e-10 2.81104e-10 1.76664e-09 -1.63248e-09 4.80101e-10 3.07396e-09 -9.73809e-10 2.81104e-10 1.76665e-09 -7.73091 5.47488 -0.417314 -9.73793e-10 2.81103e-10 1.76663e-09 -2.90554 0.965183 -0.102902 -9.73792e-10 2.81103e-10 1.76664e-09 -10.2786 0.731801 -0.0259123 -9.73791e-10 2.81107e-10 1.76663e-09 -2.22167 -0.733487 0.20892 -2.03217e-16 0.0 -3.88251e-19 0.737353 -6.25497 1.29236 -0.467628 43.9942 0.63681 -2.06906 -3.79266 -8.82813 2.03217e-16 0.0 3.88251e-19 4.00415 -29.6498 3.30591 0.126493 25.9827 0.130551 -0.201165 -0.811027 -7.41843
-21.9062 85.3414 35.6948 0.4653 4.2292 2.2921 -0.774454 2.5247 5.28672 1.44532 1.53033 1.33802 -11.0565 -1.66153 -5.60989 11.2296 -0.319566 -7.64335 -0.0 0.0 0.0 -0.0 0.0 0.0 1.52621e-14 3.14083e-14 2.38231e-15 76.2553 -3.94042 -0.654084 -9.25602 -3.70005 16.4155 -0.360307 16.6948 2.41712 -3.64736e-10 8.70726e-10 -1.02293e-09 -6.43064e-10 1.51151e-09 -1.76258e-09 -3.64735e-10 8.70725e-10 -1.02294e-09 7.73091 5.47488 0.417314 -3.64741e-10 8.70728e-10 -1.02293e-09 2.90554 0.965183 0.102902 -3.64733e-10 8.70728e-10 -1.02293e-09 10.2786 0.731801 0.0259123 -3.64743e-10 8.70729e-10 -1.02292e-09 2.22167 -0.733487 -0.20892 1.52027e-14 3.14075e-14 2.15558e-15 -74.2167 -23.7361 12.658 7.89992 -2.95946 -13.9179 1.41968 31.705 -4.98257 -7.68218e-10 4.29928e-10 8.98927e-10 -1.30165e-09 7.39885e-10 1.57139e-09 -7.68228e-10 4.2993e-10 8.98943e-10 -7.73091 5.47488 -0.417314 -7.68215e-10 4.29928e-10 8.98921e-10 -2.90554 0.965183 -0.102902 -7.68217e-10 4.29929e-10 8.98928e-10 -10.2786 0.731801 -0.0259123 -7.68214e-10 4.29931e-10 8.98918e-10 -2.22167 -0.733487 0.20892 -2.03217e-16 0.0 -3.88251e-19 -0.700734 -8.32898 0.970294 -0.555573 46.9324 0.694532 -1.353 -0.0514789 -7.46509 2.03217e-16 0.0 3.88251e-19 2.85541 -29.376 3.39405 0.131823 26.5771 0.125299 -0.348708 -1.63976 -7.73735
-21.6462 85.2666 36.4675 0.6573 4.0898 2.0478 -2.00614 2.68795 4.92958 1.68402 1.50608 1.21848 -11.0873 -1.88353 -5.58199 11.4696 -0.218003 -7.55109 -0.0 0.0 0.0 -0.0 0.0 0.0 4.22998e-14 -2.90086e-14 -1.23626e-13 75.6129 -4.35687 -1.26594 -9.34954 -3.75463 16.5883 -0.365543 16.8873 2.4459 -1.70382e-12 -3.16561e-10 -8.17073e-10 -1.44287e-11 -5.42963e-10 -1.41282e-09 -1.70335e-12 -3.16562e-10 -8.17082e-10 7.73091 5.47488 0.417314 -1.71015e-12 -3.1656e-10 -8.17071e-10 2.90554 0.965183 0.102902 -1.70323e-12 -3.1656e-10 -8.17072e-10 10.2786 0.731801 0.0259123 -1.71095e-12 -3.16558e-10 -8.17063e-10 2.22167 -0.733487 -0.20892 4.22299e-14 -2.90118e-14 -1.23902e-13 -74.1749 -23.0889 13.6408 8.03149 -3.02795 -14.1584 1.28474 30.356 -4.72272 -5.64722e-10 5.54486e-10 -6.70812e-11 -9.76612e-10 9.57968e-10 -1.01112e-10 -5.64728e-10 5.54489e-10 -6.70652e-11 -7.73091 5.47488 -0.417314 -5.64718e-10 5.54485e-10 -6.70875e-11 -2.90554 0.965183 -0.102902 -5.64722e-10 5.54486e-10 -6.7081e-11 -10.2786 0.731801 -0.0259123 -5.64718e-10 5.54487e-10 -6.70911e-11 -2.22167 -0.733487 0.20892 -2.03217e-16 0.0 -3.88251e-19 -2.22267 -10.4439 0.625524 -0.653612 49.815 0.763697 -0.805195 3.72652 -6.15699 2.03217e-16 0.0 3.88251e-19 1.67281 -29.0436 3.49675 0.136112 27.1356 0.118968 -0.517887 -2.58864 -8.02793
